# xmcd CD database file
#
# Track frame offsets:
#	150
#	20882
#	42565
#	64625
#	97440
#
# Disc length: 4440 seconds
#
# Revision: 3
# Processed by: cddbd v1.5.1PL0 Copyright (c) Steve Scherf et al.
# Submitted via: CDex 1.51
#
DISCID=49115605
DTITLE=大塚 愛 - 金魚花火
DYEAR=2004
DGENRE=JPop
TTITLE0=金魚花火
TTITLE1=ココ夏バケーション
TTITLE2=金魚花火 (Instrumental)
TTITLE3=ココ夏バケーション (Instrumental)
TTITLE4=CCCD
EXTD=YEAR: 2004
EXTT0=
EXTT1=
EXTT2=
EXTT3=
EXTT4=
PLAYORDER=
